<svg width="402" height="279" viewBox="0 0 402 279" fill="none" xmlns="http://www.w3.org/2000/svg">
<path d="M98.4972 272.383C69.9947 254.862 51 223.485 51 187.691C51 132.756 95.7401 88.2216 150.93 88.2216C180.843 88.2216 207.686 101.306 225.999 122.037C233.964 120.002 242.312 118.92 250.914 118.92C306.104 118.92 350.844 163.454 350.844 218.39C350.844 238.295 344.969 256.833 334.853 272.383H98.4972Z" fill="#D6F8F0"/>
<path d="M349.97 272.222C349.97 272.222 338.286 272.868 319.541 273.735C315.589 273.917 311.323 274.109 306.787 274.308C305.696 274.357 304.59 274.405 303.467 274.455C300.372 274.585 297.162 274.723 293.849 274.859C290.912 274.983 287.893 275.102 284.804 275.224C272.422 275.714 258.894 276.204 244.788 276.64C244.015 276.665 243.24 276.688 242.464 276.711C240.058 276.786 237.637 276.857 235.203 276.927C234.809 276.939 234.415 276.948 234.019 276.96C223.638 277.255 213.03 277.515 202.41 277.722C201.406 277.741 200.401 277.76 199.398 277.779C177.733 278.179 156.103 278.347 136.334 278.118C131.979 278.066 127.716 277.999 123.561 277.907C122.407 277.879 121.26 277.854 120.122 277.825C115.728 277.712 111.467 277.58 107.363 277.417C99.7699 277.113 92.7151 276.719 86.3496 276.217C74.5233 275.285 65.0793 273.986 59 272.222H349.97Z" fill="#2A1E68"/>
<path d="M241.768 270.124L148.07 270.123C140.994 270.123 135.258 264.418 135.258 257.379V46.5391C135.258 39.5005 140.994 33.7948 148.07 33.7948L241.768 33.7954C248.844 33.7954 254.581 39.5013 254.581 46.5399V257.38C254.581 264.418 248.844 270.124 241.768 270.124Z" fill="#2A1E68"/>
<path d="M252.284 270.124L158.586 270.123C151.51 270.123 145.773 264.418 145.773 257.379V46.5391C145.773 39.5005 151.51 33.7948 158.586 33.7948L252.284 33.7954C259.36 33.7954 265.096 39.5013 265.096 46.5399V257.38C265.096 264.418 259.36 270.124 252.284 270.124Z" fill="#482D98"/>
<path d="M158.587 36.4706L252.285 36.4712C257.866 36.4712 262.408 40.988 262.408 46.5399V257.381C262.408 262.933 257.866 267.45 252.285 267.45L158.587 267.449C153.006 267.449 148.465 262.932 148.465 257.38V46.5391C148.465 40.9874 153.006 36.4706 158.587 36.4706Z" fill="white"/>
<path d="M192.14 47.2929H218.733C219.816 47.2929 220.694 46.4198 220.694 45.3427C220.694 44.2656 219.816 43.3925 218.733 43.3925H192.14C191.057 43.3925 190.18 44.2656 190.18 45.3427C190.18 46.4198 191.057 47.2929 192.14 47.2929Z" fill="#482D98"/>
<path d="M174.667 91.7005C182.215 91.7005 188.334 85.6139 188.334 78.1056C188.334 70.5973 182.215 64.5106 174.667 64.5106C167.119 64.5106 161 70.5973 161 78.1056C161 85.6139 167.119 91.7005 174.667 91.7005Z" fill="#C099F7"/>
<path d="M174.909 89.1086C181.021 89.1086 185.975 84.1543 185.975 78.043C185.975 71.9316 181.021 66.9774 174.909 66.9774C168.798 66.9774 163.844 71.9316 163.844 78.043C163.844 84.1543 168.798 89.1086 174.909 89.1086Z" fill="#F8F0FE"/>
<path d="M207.003 91.7005C214.551 91.7005 220.67 85.6139 220.67 78.1056C220.67 70.5973 214.551 64.5106 207.003 64.5106C199.455 64.5106 193.336 70.5973 193.336 78.1056C193.336 85.6139 199.455 91.7005 207.003 91.7005Z" fill="#C099F7"/>
<path d="M207.245 89.1086C213.357 89.1086 218.311 84.1543 218.311 78.043C218.311 71.9316 213.357 66.9774 207.245 66.9774C201.134 66.9774 196.18 71.9316 196.18 78.043C196.18 84.1543 201.134 89.1086 207.245 89.1086Z" fill="#F8F0FE"/>
<path d="M239.335 91.7005C246.883 91.7005 253.002 85.6139 253.002 78.1056C253.002 70.5973 246.883 64.5106 239.335 64.5106C231.787 64.5106 225.668 70.5973 225.668 78.1056C225.668 85.6139 231.787 91.7005 239.335 91.7005Z" fill="#C099F7"/>
<path d="M239.577 89.1086C245.689 89.1086 250.643 84.1543 250.643 78.043C250.643 71.9316 245.689 66.9774 239.577 66.9774C233.466 66.9774 228.512 71.9316 228.512 78.043C228.512 84.1543 233.466 89.1086 239.577 89.1086Z" fill="#F8F0FE"/>

<rect x="168" y="195" width="20" height="50" rx="4" fill="#CFE6F9"/>
<rect x="195" y="145" width="20" height="100" rx="4" fill="#C099F7"/>
<rect x="222" y="115" width="20" height="130" rx="4" fill="#8F35F0"/>
<path d="M 178 190 L 205 135 L 232 105" stroke="#1E88E5" stroke-width="4" fill="none" stroke-linecap="round" stroke-linejoin="round"/>
<circle cx="178" cy="190" r="4" fill="white" stroke="#1E88E5" stroke-width="2"/>
<circle cx="205" cy="135" r="4" fill="white" stroke="#1E88E5" stroke-width="2"/>
<circle cx="232" cy="105" r="4" fill="white" stroke="#1E88E5" stroke-width="2"/>

<g filter="url(#filter0_d_4740_250905)">
  <rect x="84.6289" y="64.5712" width="31.2535" height="31.2535" rx="6.65252" fill="#1E88E5"/>
  <rect x="84.8368" y="64.7791" width="30.8377" height="30.8377" rx="6.44463" stroke="#DFEEFB" stroke-width="0.415783"/>
  <path d="M93 74 L97 74 L97 86 L93 86 Z M100 79 L104 79 L104 86 L100 86 Z M107 82 L111 82 L111 86 L107 86 Z" fill="white"/>
</g>
<g filter="url(#filter1_d_4740_250905)">
  <rect x="84.6289" y="103.825" width="108.519" height="33.2626" rx="6.65252" fill="white"/>
  <rect x="84.8368" y="104.032" width="108.104" height="32.8468" rx="6.44463" stroke="#DFEEFB" stroke-width="0.415783"/>
  <circle cx="102" cy="120" r="10" fill="#1E88E5"/>
  <rect x="120" y="113" width="55" height="6" rx="3" fill="#8F35F0"/>
  <rect x="120" y="123" width="35" height="4" rx="2" fill="#CFE6F9"/>
</g>
<g filter="url(#filter2_d_4740_250905)">
  <rect x="84.6289" y="141.087" width="108.519" height="33.2626" rx="6.65252" fill="white"/>
  <rect x="84.8368" y="141.295" width="108.104" height="32.8468" rx="6.44463" stroke="#DFEEFB" stroke-width="0.415783"/>
  <circle cx="102" cy="157" r="10" fill="#C099F7"/>
  <rect x="120" y="150" width="45" height="6" rx="3" fill="#8F35F0"/>
  <rect x="120" y="160" width="25" height="4" rx="2" fill="#CFE6F9"/>
</g>
<g filter="url(#filter5_d_4740_250905)">
  <rect x="278.574" y="197.697" width="31.2535" height="31.2535" rx="6.65252" fill="#9742F1"/>
  <rect x="278.782" y="197.905" width="30.8377" height="30.8377" rx="6.44463" stroke="#DFEEFB" stroke-width="0.415783"/>
  <path d="M287 215 L293 209 L298 214 L306 203 M300 203 H306 V209" stroke="white" stroke-width="2" fill="none" stroke-linecap="round" stroke-linejoin="round"/>
</g>

<g filter="url(#filter7_d_4740_250905)">
  <path d="M308.262 81.2216H261.256C259.458 81.2216 258 82.6713 258 84.4598V100.815C258 102.604 259.458 104.053 261.256 104.053H308.262C310.06 104.053 311.518 102.604 311.518 100.815V84.4598C311.518 82.6713 310.06 81.2216 308.262 81.2216Z" fill="#8FC4F2"/>
  <rect x="271" y="91.2216" width="5" height="9" rx="2.5" fill="white"/>
  <rect x="263" y="94.2216" width="5" height="6" rx="2.5" fill="white"/>
  <rect x="279" y="86.2216" width="5" height="14" rx="2.5" fill="white"/>
  <rect x="286" y="93.2216" width="5" height="7" rx="2.5" fill="white"/>
  <rect x="293" y="85.2216" width="5" height="15" rx="2.5" fill="white"/>
  <rect x="301" y="88.2216" width="5" height="12" rx="2.5" fill="white"/>
</g>
<path d="M131.06 40.6247C127.891 42.045 120.42 43.2993 115.882 36.9549C110.208 29.0244 122.104 20.5147 125.416 26.3265C128.727 32.1384 100.211 44.9199 93.9997 20.1672" stroke="#8F35F0" stroke-width="0.747851"/>
<path d="M269.999 43.1669L330.999 26.222" stroke="#8F35F0" stroke-width="0.747851"/>
<path d="M258.647 27.2472L264.175 0.221562" stroke="#8F35F0" stroke-width="0.747851"/>
<path d="M266.998 30.838L302.856 0.284631" stroke="#8F35F0" stroke-width="0.747851"/>

<defs>
<filter id="filter0_d_4740_250905" x="84.6289" y="64.5712" width="34.5797" height="34.5797" filterUnits="userSpaceOnUse" color-interpolation-filters="sRGB">
<feFlood flood-opacity="0" result="BackgroundImageFix"/>
<feColorMatrix in="SourceAlpha" type="matrix" values="0 0 0 0 0 0 0 0 0 0 0 0 0 0 0 0 0 0 127 0" result="hardAlpha"/>
<feOffset dx="3.32626" dy="3.32626"/>
<feComposite in2="hardAlpha" operator="out"/>
<feColorMatrix type="matrix" values="0 0 0 0 0.356863 0 0 0 0 0.403922 0 0 0 0 0.545098 0 0 0 0.2 0"/>
<feBlend mode="normal" in2="BackgroundImageFix" result="effect1_dropShadow_4740_250905"/>
<feBlend mode="normal" in="SourceGraphic" in2="effect1_dropShadow_4740_250905" result="shape"/>
</filter>
<filter id="filter1_d_4740_250905" x="84.6289" y="103.825" width="111.846" height="36.5889" filterUnits="userSpaceOnUse" color-interpolation-filters="sRGB">
<feFlood flood-opacity="0" result="BackgroundImageFix"/>
<feColorMatrix in="SourceAlpha" type="matrix" values="0 0 0 0 0 0 0 0 0 0 0 0 0 0 0 0 0 0 127 0" result="hardAlpha"/>
<feOffset dx="3.32626" dy="3.32626"/>
<feComposite in2="hardAlpha" operator="out"/>
<feColorMatrix type="matrix" values="0 0 0 0 0.356863 0 0 0 0 0.403922 0 0 0 0 0.545098 0 0 0 0.2 0"/>
<feBlend mode="normal" in2="BackgroundImageFix" result="effect1_dropShadow_4740_250905"/>
<feBlend mode="normal" in="SourceGraphic" in2="effect1_dropShadow_4740_250905" result="shape"/>
</filter>
<filter id="filter2_d_4740_250905" x="84.6289" y="141.087" width="111.846" height="36.5889" filterUnits="userSpaceOnUse" color-interpolation-filters="sRGB">
<feFlood flood-opacity="0" result="BackgroundImageFix"/>
<feColorMatrix in="SourceAlpha" type="matrix" values="0 0 0 0 0 0 0 0 0 0 0 0 0 0 0 0 0 0 127 0" result="hardAlpha"/>
<feOffset dx="3.32626" dy="3.32626"/>
<feComposite in2="hardAlpha" operator="out"/>
<feColorMatrix type="matrix" values="0 0 0 0 0.356863 0 0 0 0 0.403922 0 0 0 0 0.545098 0 0 0 0.2 0"/>
<feBlend mode="normal" in2="BackgroundImageFix" result="effect1_dropShadow_4740_250905"/>
<feBlend mode="normal" in="SourceGraphic" in2="effect1_dropShadow_4740_250905" result="shape"/>
</filter>
<filter id="filter5_d_4740_250905" x="275.246" y="197.697" width="34.5814" height="34.5797" filterUnits="userSpaceOnUse" color-interpolation-filters="sRGB">
<feFlood flood-opacity="0" result="BackgroundImageFix"/>
<feColorMatrix in="SourceAlpha" type="matrix" values="0 0 0 0 0 0 0 0 0 0 0 0 0 0 0 0 0 0 127 0" result="hardAlpha"/>
<feOffset dx="-3.32794" dy="3.32626"/>
<feComposite in2="hardAlpha" operator="out"/>
<feColorMatrix type="matrix" values="0 0 0 0 0.356863 0 0 0 0 0.403922 0 0 0 0 0.545098 0 0 0 0.2 0"/>
<feBlend mode="normal" in2="BackgroundImageFix" result="effect1_dropShadow_4740_250905"/>
<feBlend mode="normal" in="SourceGraphic" in2="effect1_dropShadow_4740_250905" result="shape"/>
</filter>
<filter id="filter7_d_4740_250905" x="255.009" y="81.2216" width="56.5092" height="25.8233" filterUnits="userSpaceOnUse" color-interpolation-filters="sRGB">
<feFlood flood-opacity="0" result="BackgroundImageFix"/>
<feColorMatrix in="SourceAlpha" type="matrix" values="0 0 0 0 0 0 0 0 0 0 0 0 0 0 0 0 0 0 127 0" result="hardAlpha"/>
<feOffset dx="-2.9914" dy="2.9914"/>
<feComposite in2="hardAlpha" operator="out"/>
<feColorMatrix type="matrix" values="0 0 0 0 0.357826 0 0 0 0 0.403056 0 0 0 0 0.543269 0 0 0 0.2 0"/>
<feBlend mode="normal" in2="BackgroundImageFix" result="effect1_dropShadow_4740_250905"/>
<feBlend mode="normal" in="SourceGraphic" in2="effect1_dropShadow_4740_250905" result="shape"/>
</filter>
</defs>
</svg>
